ISO-10303-21;
HEADER;
FILE_DESCRIPTION (( 'STEP AP214' ),
    '1' );
FILE_NAME ('1508-0-00-15-00-00-03-0.STEP',
    '2024-10-28T11:22:19',
    ( '' ),
    ( '' ),
    'SwSTEP 2.0',
    'SolidWorks 2023',
    '' );
FILE_SCHEMA (( 'AUTOMOTIVE_DESIGN' ));
ENDSEC;

DATA;
#1 = FILL_AREA_STYLE ('',( #208 ) ) ;
#2 = ADVANCED_FACE ( 'NONE', ( #165 ), #376, .T. ) ;
#3 =( NAMED_UNIT ( * ) SI_UNIT ( $, .STERADIAN. ) SOLID_ANGLE_UNIT ( ) );
#4 = SURFACE_SIDE_STYLE ('',( #328 ) ) ;
#5 = ORIENTED_EDGE ( 'NONE', *, *, #64, .F. ) ;
#6 = CARTESIAN_POINT ( 'NONE',  ( 0.000000000000000000, 0.1620000000000000051, 0.000000000000000000 ) ) ;
#7 = APPLICATION_CONTEXT ( 'automotive_design' ) ;
#8 = ORIENTED_EDGE ( 'NONE', *, *, #88, .F. ) ;
#9 =( LENGTH_UNIT ( ) NAMED_UNIT ( * ) SI_UNIT ( $, .METRE. ) );
#10 = FACE_OUTER_BOUND ( 'NONE', #409, .T. ) ;
#11 =( GEOMETRIC_REPRESENTATION_CONTEXT ( 3 ) GLOBAL_UNCERTAINTY_ASSIGNED_CONTEXT ( ( #262 ) ) GLOBAL_UNIT_ASSIGNED_CONTEXT ( ( #123, #42, #3 ) ) REPRESENTATION_CONTEXT ( 'NONE', 'WORKASPACE' ) );
#12 =( NAMED_UNIT ( * ) PLANE_ANGLE_UNIT ( ) SI_UNIT ( $, .RADIAN. ) );
#13 = DIRECTION ( 'NONE',  ( -1.000000000000000000, 0.000000000000000000, 0.000000000000000000 ) ) ;
#14 = DIRECTION ( 'NONE',  ( 0.000000000000000000, 0.000000000000000000, 1.000000000000000000 ) ) ;
#15 = DIMENSIONAL_EXPONENTS ( 1.000000000000000000, 0.000000000000000000, 0.000000000000000000, 0.000000000000000000, 0.000000000000000000, 0.000000000000000000, 0.000000000000000000 ) ;
#16 =( CONVERSION_BASED_UNIT ( 'INCH', #380 ) LENGTH_UNIT ( ) NAMED_UNIT ( #68 ) );
#17 = FILL_AREA_STYLE_COLOUR ( '', #116 ) ;
#18 = CARTESIAN_POINT ( 'NONE',  ( 0.000000000000000000, 0.1699999999999999845, 0.000000000000000000 ) ) ;
#19 = MECHANICAL_DESIGN_GEOMETRIC_PRESENTATION_REPRESENTATION (  '', ( #163 ), #379 ) ;
#20 = CIRCLE ( 'NONE', #129, 0.01000000000000000021 ) ;
#21 =( NAMED_UNIT ( * ) SI_UNIT ( $, .STERADIAN. ) SOLID_ANGLE_UNIT ( ) );
#22 = FILL_AREA_STYLE_COLOUR ( '', #264 ) ;
#23 = PRESENTATION_LAYER_ASSIGNMENT (  '', '', ( #142 ) ) ;
#24 = FILL_AREA_STYLE ('',( #17 ) ) ;
#25 = AXIS2_PLACEMENT_3D ( 'NONE', #147, #346, #56 ) ;
#26 =( NAMED_UNIT ( * ) PLANE_ANGLE_UNIT ( ) SI_UNIT ( $, .RADIAN. ) );
#27 = CARTESIAN_POINT ( 'NONE',  ( 0.000000000000000000, 0.04599999999999999922, 0.000000000000000000 ) ) ;
#28 = SURFACE_SIDE_STYLE ('',( #54 ) ) ;
#29 =( LENGTH_UNIT ( ) NAMED_UNIT ( * ) SI_UNIT ( $, .METRE. ) );
#30 = PRESENTATION_STYLE_ASSIGNMENT (( #459 ) ) ;
#31 = ORIENTED_EDGE ( 'NONE', *, *, #484, .T. ) ;
#32 = CARTESIAN_POINT ( 'NONE',  ( 0.000000000000000000, 0.04499999999999999833, 0.000000000000000000 ) ) ;
#33 = DIMENSIONAL_EXPONENTS ( 1.000000000000000000, 0.000000000000000000, 0.000000000000000000, 0.000000000000000000, 0.000000000000000000, 0.000000000000000000, 0.000000000000000000 ) ;
#34 = EDGE_LOOP ( 'NONE', ( #179, #429 ) ) ;
#35 = EDGE_LOOP ( 'NONE', ( #158, #392 ) ) ;
#36 = DIRECTION ( 'NONE',  ( -1.000000000000000000, 0.000000000000000000, 0.000000000000000000 ) ) ;
#37 =( GEOMETRIC_REPRESENTATION_CONTEXT ( 3 ) GLOBAL_UNCERTAINTY_ASSIGNED_CONTEXT ( ( #162 ) ) GLOBAL_UNIT_ASSIGNED_CONTEXT ( ( #139, #145, #86 ) ) REPRESENTATION_CONTEXT ( 'NONE', 'WORKASPACE' ) );
#38 = PRESENTATION_LAYER_ASSIGNMENT (  '', '', ( #440 ) ) ;
#39 = AXIS2_PLACEMENT_3D ( 'NONE', #61, #229, #261 ) ;
#40 = FACE_OUTER_BOUND ( 'NONE', #502, .T. ) ;
#41 = CIRCLE ( 'NONE', #85, 0.01000000000000000021 ) ;
#42 =( NAMED_UNIT ( * ) PLANE_ANGLE_UNIT ( ) SI_UNIT ( $, .RADIAN. ) );
#43 = SURFACE_STYLE_USAGE ( .BOTH. , #4 ) ;
#44 = CIRCLE ( 'NONE', #344, 0.008999999999999999320 ) ;
#45 = CARTESIAN_POINT ( 'NONE',  ( 0.000000000000000000, 0.3654558441227157006, -0.008999999999999999320 ) ) ;
#46 =( NAMED_UNIT ( * ) SI_UNIT ( $, .STERADIAN. ) SOLID_ANGLE_UNIT ( ) );
#47 = PRESENTATION_LAYER_ASSIGNMENT (  '', '', ( #364 ) ) ;
#48 = FILL_AREA_STYLE ('',( #247 ) ) ;
#49 = EDGE_LOOP ( 'NONE', ( #504, #115, #310, #199 ) ) ;
#50 = LINE ( 'NONE', #451, #498 ) ;
#51 = FILL_AREA_STYLE ('',( #408 ) ) ;
#52 =( CONVERSION_BASED_UNIT ( 'INCH', #457 ) LENGTH_UNIT ( ) NAMED_UNIT ( #452 ) );
#53 = FACE_OUTER_BOUND ( 'NONE', #201, .T. ) ;
#54 = SURFACE_STYLE_FILL_AREA ( #24 ) ;
#55 = DIRECTION ( 'NONE',  ( 0.000000000000000000, 0.000000000000000000, 1.000000000000000000 ) ) ;
#56 = DIRECTION ( 'NONE',  ( 0.000000000000000000, 0.000000000000000000, 1.000000000000000000 ) ) ;
#57 = SURFACE_STYLE_FILL_AREA ( #338 ) ;
#58 = DIRECTION ( 'NONE',  ( 0.000000000000000000, 1.000000000000000000, 0.000000000000000000 ) ) ;
#59 = UNCERTAINTY_MEASURE_WITH_UNIT (LENGTH_MEASURE( 1.000000000000000082E-05 ), #16, 'distance_accuracy_value', 'NONE');
#60 = STYLED_ITEM ( 'NONE', ( #118 ), #121 ) ;
#61 = CARTESIAN_POINT ( 'NONE',  ( 1.224646799147351699E-19, 0.1620000000000000051, -0.0009999999999999987198 ) ) ;
#62 = SURFACE_SIDE_STYLE ('',( #384 ) ) ;
#63 =( NAMED_UNIT ( * ) SI_UNIT ( $, .STERADIAN. ) SOLID_ANGLE_UNIT ( ) );
#64 = EDGE_CURVE ( 'NONE', #113, #291, #298, .T. ) ;
#65 = ORIENTED_EDGE ( 'NONE', *, *, #360, .T. ) ;
#66 =( LENGTH_UNIT ( ) NAMED_UNIT ( * ) SI_UNIT ( $, .METRE. ) );
#67 = ORIENTED_EDGE ( 'NONE', *, *, #194, .F. ) ;
#68 = DIMENSIONAL_EXPONENTS ( 1.000000000000000000, 0.000000000000000000, 0.000000000000000000, 0.000000000000000000, 0.000000000000000000, 0.000000000000000000, 0.000000000000000000 ) ;
#69 = ORIENTED_EDGE ( 'NONE', *, *, #126, .T. ) ;
#70 = DIRECTION ( 'NONE',  ( 0.000000000000000000, 1.000000000000000000, 0.000000000000000000 ) ) ;
#71 = VECTOR ( 'NONE', #489, 39.37007874015748143 ) ;
#72 = STYLED_ITEM ( 'NONE', ( #265 ), #512 ) ;
#73 = SURFACE_STYLE_USAGE ( .BOTH. , #470 ) ;
#74 = LENGTH_MEASURE_WITH_UNIT ( LENGTH_MEASURE( 0.02539999999999999897 ), #166 );
#75 = UNCERTAINTY_MEASURE_WITH_UNIT (LENGTH_MEASURE( 1.000000000000000082E-05 ), #93, 'distance_accuracy_value', 'NONE');
#76 = CIRCLE ( 'NONE', #236, 0.0009999999999999987198 ) ;
#77 = EDGE_CURVE ( 'NONE', #270, #135, #191, .T. ) ;
#78 = APPLICATION_PROTOCOL_DEFINITION ( 'draft international standard', 'automotive_design', 1998, #447 ) ;
#79 = PRODUCT_RELATED_PRODUCT_CATEGORY ( 'part', '', ( #399 ) ) ;
#80 = MECHANICAL_DESIGN_GEOMETRIC_PRESENTATION_REPRESENTATION (  '', ( #505 ), #172 ) ;
#81 = SURFACE_STYLE_FILL_AREA ( #1 ) ;
#82 = DIRECTION ( 'NONE',  ( 0.000000000000000000, 0.000000000000000000, 1.000000000000000000 ) ) ;
#83 = AXIS2_PLACEMENT_3D ( 'NONE', #94, #302, #454 ) ;
#84 = COLOUR_RGB ( '',0.6470588235294117974, 0.5176470588235293491, 0.000000000000000000 ) ;
#85 = AXIS2_PLACEMENT_3D ( 'NONE', #255, #103, #55 ) ;
#86 =( NAMED_UNIT ( * ) SI_UNIT ( $, .STERADIAN. ) SOLID_ANGLE_UNIT ( ) );
#87 = COLOUR_RGB ( '',0.6470588235294117974, 0.5176470588235293491, 0.000000000000000000 ) ;
#88 = EDGE_CURVE ( 'NONE', #351, #427, #41, .T. ) ;
#89 = CARTESIAN_POINT ( 'NONE',  ( 0.000000000000000000, 0.3654558441227157006, 0.000000000000000000 ) ) ;
#90 = VERTEX_POINT ( 'NONE', #460 ) ;
#91 = DIRECTION ( 'NONE',  ( -0.000000000000000000, -1.000000000000000000, -0.000000000000000000 ) ) ;
#92 = FILL_AREA_STYLE ('',( #334 ) ) ;
#93 =( CONVERSION_BASED_UNIT ( 'INCH', #383 ) LENGTH_UNIT ( ) NAMED_UNIT ( #218 ) );
#94 = CARTESIAN_POINT ( 'NONE',  ( 0.000000000000000000, 0.04499999999999999833, 0.000000000000000000 ) ) ;
#95 = DIRECTION ( 'NONE',  ( 0.000000000000000000, 0.000000000000000000, 1.000000000000000000 ) ) ;
#96 = DIMENSIONAL_EXPONENTS ( 1.000000000000000000, 0.000000000000000000, 0.000000000000000000, 0.000000000000000000, 0.000000000000000000, 0.000000000000000000, 0.000000000000000000 ) ;
#97 = DIRECTION ( 'NONE',  ( -0.000000000000000000, -1.000000000000000000, -0.000000000000000000 ) ) ;
#98 =( NAMED_UNIT ( * ) SI_UNIT ( $, .STERADIAN. ) SOLID_ANGLE_UNIT ( ) );
#99 = FILL_AREA_STYLE_COLOUR ( '', #167 ) ;
#100 =( NAMED_UNIT ( * ) SI_UNIT ( $, .STERADIAN. ) SOLID_ANGLE_UNIT ( ) );
#101 = DIRECTION ( 'NONE',  ( 0.000000000000000000, 0.000000000000000000, 1.000000000000000000 ) ) ;
#102 = MECHANICAL_DESIGN_GEOMETRIC_PRESENTATION_REPRESENTATION (  '', ( #364 ), #37 ) ;
#103 = DIRECTION ( 'NONE',  ( -0.000000000000000000, -1.000000000000000000, -0.000000000000000000 ) ) ;
#104 = DIRECTION ( 'NONE',  ( 0.000000000000000000, 0.000000000000000000, 1.000000000000000000 ) ) ;
#105 = FACE_OUTER_BOUND ( 'NONE', #49, .T. ) ;
#106 = LENGTH_MEASURE_WITH_UNIT ( LENGTH_MEASURE( 0.02539999999999999897 ), #198 );
#107 = STYLED_ITEM ( 'NONE', ( #343 ), #401 ) ;
#108 = DIRECTION ( 'NONE',  ( 0.000000000000000000, 1.000000000000000000, 0.000000000000000000 ) ) ;
#109 = CARTESIAN_POINT ( 'NONE',  ( 0.000000000000000000, 0.04499999999999999833, 0.01000000000000000021 ) ) ;
#110 = DIRECTION ( 'NONE',  ( 0.000000000000000000, 1.000000000000000000, 0.000000000000000000 ) ) ;
#111 = PRESENTATION_STYLE_ASSIGNMENT (( #466 ) ) ;
#112 = ORIENTED_EDGE ( 'NONE', *, *, #268, .F. ) ;
#113 = VERTEX_POINT ( 'NONE', #252 ) ;
#114 = CARTESIAN_POINT ( 'NONE',  ( 0.000000000000000000, 0.000000000000000000, 0.000000000000000000 ) ) ;
#115 = ORIENTED_EDGE ( 'NONE', *, *, #373, .T. ) ;
#116 = COLOUR_RGB ( '',0.6470588235294117974, 0.5176470588235293491, 0.000000000000000000 ) ;
#117 = SURFACE_STYLE_FILL_AREA ( #312 ) ;
#118 = PRESENTATION_STYLE_ASSIGNMENT (( #276 ) ) ;
#119 = MECHANICAL_DESIGN_GEOMETRIC_PRESENTATION_REPRESENTATION (  '', ( #60 ), #461 ) ;
#120 = MANIFOLD_SOLID_BREP ( 'Fillet2', #342 ) ;
#121 = ADVANCED_FACE ( 'NONE', ( #174 ), #507, .F. ) ;
#122 = AXIS2_PLACEMENT_3D ( 'NONE', #394, #36, #313 ) ;
#123 =( CONVERSION_BASED_UNIT ( 'INCH', #404 ) LENGTH_UNIT ( ) NAMED_UNIT ( #352 ) );
#124 =( CONVERSION_BASED_UNIT ( 'INCH', #213 ) LENGTH_UNIT ( ) NAMED_UNIT ( #15 ) );
#125 = MECHANICAL_DESIGN_GEOMETRIC_PRESENTATION_REPRESENTATION (  '', ( #278 ), #210 ) ;
#126 = EDGE_CURVE ( 'NONE', #272, #427, #216, .T. ) ;
#127 = DIRECTION ( 'NONE',  ( 0.000000000000000000, 0.000000000000000000, 1.000000000000000000 ) ) ;
#128 = MECHANICAL_DESIGN_GEOMETRIC_PRESENTATION_REPRESENTATION (  '', ( #440 ), #220 ) ;
#129 = AXIS2_PLACEMENT_3D ( 'NONE', #424, #152, #464 ) ;
#130 = DIRECTION ( 'NONE',  ( 0.000000000000000000, 0.000000000000000000, 1.000000000000000000 ) ) ;
#131 = SURFACE_STYLE_USAGE ( .BOTH. , #370 ) ;
#132 = ORIENTED_EDGE ( 'NONE', *, *, #325, .F. ) ;
#133 = CYLINDRICAL_SURFACE ( 'NONE', #259, 0.008999999999999999320 ) ;
#134 = CARTESIAN_POINT ( 'NONE',  ( 0.000000000000000000, 0.1620000000000000051, 0.000000000000000000 ) ) ;
#135 = VERTEX_POINT ( 'NONE', #202 ) ;
#136 = DIRECTION ( 'NONE',  ( 0.000000000000000000, -0.000000000000000000, 1.000000000000000000 ) ) ;
#137 = PRESENTATION_STYLE_ASSIGNMENT (( #43 ) ) ;
#138 =( LENGTH_UNIT ( ) NAMED_UNIT ( * ) SI_UNIT ( $, .METRE. ) );
#139 =( CONVERSION_BASED_UNIT ( 'INCH', #106 ) LENGTH_UNIT ( ) NAMED_UNIT ( #257 ) );
#140 = CARTESIAN_POINT ( 'NONE',  ( 0.000000000000000000, 0.1699999999999999845, 0.000000000000000000 ) ) ;
#141 =( NAMED_UNIT ( * ) SI_UNIT ( $, .STERADIAN. ) SOLID_ANGLE_UNIT ( ) );
#142 = STYLED_ITEM ( 'NONE', ( #414 ), #120 ) ;
#143 = DIMENSIONAL_EXPONENTS ( 1.000000000000000000, 0.000000000000000000, 0.000000000000000000, 0.000000000000000000, 0.000000000000000000, 0.000000000000000000, 0.000000000000000000 ) ;
#144 = COLOUR_RGB ( '',0.6470588235294117974, 0.5176470588235293491, 0.000000000000000000 ) ;
#145 =( NAMED_UNIT ( * ) PLANE_ANGLE_UNIT ( ) SI_UNIT ( $, .RADIAN. ) );
#146 = DIRECTION ( 'NONE',  ( 0.000000000000000000, -0.000000000000000000, 1.000000000000000000 ) ) ;
#147 = CARTESIAN_POINT ( 'NONE',  ( 0.000000000000000000, 0.04599999999999999922, 0.000000000000000000 ) ) ;
#148 = CARTESIAN_POINT ( 'NONE',  ( 0.000000000000000000, 0.04599999999999999922, 0.000000000000000000 ) ) ;
#149 = DIRECTION ( 'NONE',  ( 0.000000000000000000, 1.000000000000000000, 0.000000000000000000 ) ) ;
#150 = COLOUR_RGB ( '',0.6470588235294117974, 0.5176470588235293491, 0.000000000000000000 ) ;
#151 = LENGTH_MEASURE_WITH_UNIT ( LENGTH_MEASURE( 0.02539999999999999897 ), #195 );
#152 = DIRECTION ( 'NONE',  ( -0.000000000000000000, -1.000000000000000000, -0.000000000000000000 ) ) ;
#153 = EDGE_CURVE ( 'NONE', #272, #353, #476, .T. ) ;
#154 = CARTESIAN_POINT ( 'NONE',  ( 0.000000000000000000, 0.1699999999999999845, 0.0009999999999999987198 ) ) ;
#155 = FILL_AREA_STYLE ('',( #418 ) ) ;
#156 = SURFACE_SIDE_STYLE ('',( #348 ) ) ;
#157 = FACE_OUTER_BOUND ( 'NONE', #246, .T. ) ;
#158 = ORIENTED_EDGE ( 'NONE', *, *, #77, .T. ) ;
#159 = COLOUR_RGB ( '',0.6470588235294117974, 0.5176470588235293491, 0.000000000000000000 ) ;
#160 = ORIENTED_EDGE ( 'NONE', *, *, #325, .T. ) ;
#161 = SURFACE_SIDE_STYLE ('',( #185 ) ) ;
#162 = UNCERTAINTY_MEASURE_WITH_UNIT (LENGTH_MEASURE( 1.000000000000000082E-05 ), #139, 'distance_accuracy_value', 'NONE');
#163 = STYLED_ITEM ( 'NONE', ( #375 ), #238 ) ;
#164 = STYLED_ITEM ( 'NONE', ( #111 ), #432 ) ;
#165 = FACE_OUTER_BOUND ( 'NONE', #35, .T. ) ;
#166 =( LENGTH_UNIT ( ) NAMED_UNIT ( * ) SI_UNIT ( $, .METRE. ) );
#167 = COLOUR_RGB ( '',0.6470588235294117974, 0.5176470588235293491, 0.000000000000000000 ) ;
#168 = PRODUCT_DEFINITION_FORMATION_WITH_SPECIFIED_SOURCE ( 'ANY', '', #399, .NOT_KNOWN. ) ;
#169 = MECHANICAL_DESIGN_GEOMETRIC_PRESENTATION_REPRESENTATION (  '', ( #72 ), #207 ) ;
#170 = ADVANCED_FACE ( 'NONE', ( #40 ), #239, .T. ) ;
#171 = PRESENTATION_STYLE_ASSIGNMENT (( #321 ) ) ;
#172 =( GEOMETRIC_REPRESENTATION_CONTEXT ( 3 ) GLOBAL_UNCERTAINTY_ASSIGNED_CONTEXT ( ( #385 ) ) GLOBAL_UNIT_ASSIGNED_CONTEXT ( ( #180, #297, #100 ) ) REPRESENTATION_CONTEXT ( 'NONE', 'WORKASPACE' ) );
#173 = DIRECTION ( 'NONE',  ( -0.000000000000000000, -1.000000000000000000, -0.000000000000000000 ) ) ;
#174 = FACE_OUTER_BOUND ( 'NONE', #425, .T. ) ;
#175 = ADVANCED_FACE ( 'NONE', ( #53 ), #356, .T. ) ;
#176 = DIRECTION ( 'NONE',  ( 0.000000000000000000, 0.000000000000000000, -1.000000000000000000 ) ) ;
#177 = PRESENTATION_LAYER_ASSIGNMENT (  '', '', ( #107 ) ) ;
#178 = SURFACE_STYLE_USAGE ( .BOTH. , #445 ) ;
#179 = ORIENTED_EDGE ( 'NONE', *, *, #422, .T. ) ;
#180 =( CONVERSION_BASED_UNIT ( 'INCH', #290 ) LENGTH_UNIT ( ) NAMED_UNIT ( #503 ) );
#181 = ORIENTED_EDGE ( 'NONE', *, *, #349, .F. ) ;
#182 = PRODUCT_DEFINITION ( 'UNKNOWN', '', #168, #397 ) ;
#183 = CARTESIAN_POINT ( 'NONE',  ( 6.123233995736766344E-18, 0.04499999999999999833, 0.05000000000000000278 ) ) ;
#184 =( CONVERSION_BASED_UNIT ( 'INCH', #219 ) LENGTH_UNIT ( ) NAMED_UNIT ( #186 ) );
#185 = SURFACE_STYLE_FILL_AREA ( #217 ) ;
#186 = DIMENSIONAL_EXPONENTS ( 1.000000000000000000, 0.000000000000000000, 0.000000000000000000, 0.000000000000000000, 0.000000000000000000, 0.000000000000000000, 0.000000000000000000 ) ;
#187 = CARTESIAN_POINT ( 'NONE',  ( 1.102182119232617757E-18, 0.3654558441227157006, 0.008999999999999999320 ) ) ;
#188 =( GEOMETRIC_REPRESENTATION_CONTEXT ( 3 ) GLOBAL_UNCERTAINTY_ASSIGNED_CONTEXT ( ( #320 ) ) GLOBAL_UNIT_ASSIGNED_CONTEXT ( ( #52, #197, #98 ) ) REPRESENTATION_CONTEXT ( 'NONE', 'WORKASPACE' ) );
#189 =( CONVERSION_BASED_UNIT ( 'INCH', #341 ) LENGTH_UNIT ( ) NAMED_UNIT ( #33 ) );
#190 = SURFACE_STYLE_USAGE ( .BOTH. , #388 ) ;
#191 = CIRCLE ( 'NONE', #273, 0.0009999999999999987198 ) ;
#192 = CIRCLE ( 'NONE', #319, 0.008000000000000000167 ) ;
#193 = FILL_AREA_STYLE ('',( #467 ) ) ;
#194 = EDGE_CURVE ( 'NONE', #113, #232, #326, .T. ) ;
#195 =( LENGTH_UNIT ( ) NAMED_UNIT ( * ) SI_UNIT ( $, .METRE. ) );
#196 = UNCERTAINTY_MEASURE_WITH_UNIT (LENGTH_MEASURE( 1.000000000000000082E-05 ), #294, 'distance_accuracy_value', 'NONE');
#197 =( NAMED_UNIT ( * ) PLANE_ANGLE_UNIT ( ) SI_UNIT ( $, .RADIAN. ) );
#198 =( LENGTH_UNIT ( ) NAMED_UNIT ( * ) SI_UNIT ( $, .METRE. ) );
#199 = ORIENTED_EDGE ( 'NONE', *, *, #126, .F. ) ;
#200 = ORIENTED_EDGE ( 'NONE', *, *, #205, .T. ) ;
#201 = EDGE_LOOP ( 'NONE', ( #366, #65, #506, #249 ) ) ;
#202 = CARTESIAN_POINT ( 'NONE',  ( 6.123233995736764033E-19, 0.1699999999999999845, -0.0009999999999999987198 ) ) ;
#203 = UNCERTAINTY_MEASURE_WITH_UNIT (LENGTH_MEASURE( 1.000000000000000082E-05 ), #226, 'distance_accuracy_value', 'NONE');
#204 = CIRCLE ( 'NONE', #39, 0.008000000000000000167 ) ;
#205 = EDGE_CURVE ( 'NONE', #332, #272, #251, .T. ) ;
#206 = STYLED_ITEM ( 'NONE', ( #354 ), #2 ) ;
#207 =( GEOMETRIC_REPRESENTATION_CONTEXT ( 3 ) GLOBAL_UNCERTAINTY_ASSIGNED_CONTEXT ( ( #277 ) ) GLOBAL_UNIT_ASSIGNED_CONTEXT ( ( #303, #450, #21 ) ) REPRESENTATION_CONTEXT ( 'NONE', 'WORKASPACE' ) );
#208 = FILL_AREA_STYLE_COLOUR ( '', #258 ) ;
#209 = DIRECTION ( 'NONE',  ( -0.000000000000000000, -1.000000000000000000, -0.000000000000000000 ) ) ;
#210 =( GEOMETRIC_REPRESENTATION_CONTEXT ( 3 ) GLOBAL_UNCERTAINTY_ASSIGNED_CONTEXT ( ( #511 ) ) GLOBAL_UNIT_ASSIGNED_CONTEXT ( ( #124, #244, #286 ) ) REPRESENTATION_CONTEXT ( 'NONE', 'WORKASPACE' ) );
#211 = SURFACE_STYLE_FILL_AREA ( #92 ) ;
#212 = ORIENTED_EDGE ( 'NONE', *, *, #387, .T. ) ;
#213 = LENGTH_MEASURE_WITH_UNIT ( LENGTH_MEASURE( 0.02539999999999999897 ), #9 );
#214 = EDGE_LOOP ( 'NONE', ( #483, #200, #307, #434 ) ) ;
#215 = DIRECTION ( 'NONE',  ( 0.000000000000000000, 1.000000000000000000, 0.000000000000000000 ) ) ;
#216 = CIRCLE ( 'NONE', #122, 0.001000000000000000888 ) ;
#217 = FILL_AREA_STYLE ('',( #488 ) ) ;
#218 = DIMENSIONAL_EXPONENTS ( 1.000000000000000000, 0.000000000000000000, 0.000000000000000000, 0.000000000000000000, 0.000000000000000000, 0.000000000000000000, 0.000000000000000000 ) ;
#219 = LENGTH_MEASURE_WITH_UNIT ( LENGTH_MEASURE( 0.02539999999999999897 ), #66 );
#220 =( GEOMETRIC_REPRESENTATION_CONTEXT ( 3 ) GLOBAL_UNCERTAINTY_ASSIGNED_CONTEXT ( ( #203 ) ) GLOBAL_UNIT_ASSIGNED_CONTEXT ( ( #226, #306, #63 ) ) REPRESENTATION_CONTEXT ( 'NONE', 'WORKASPACE' ) );
#221 = CIRCLE ( 'NONE', #421, 0.05000000000000000278 ) ;
#222 = DIRECTION ( 'NONE',  ( 0.000000000000000000, 0.000000000000000000, 1.000000000000000000 ) ) ;
#223 = MECHANICAL_DESIGN_GEOMETRIC_PRESENTATION_REPRESENTATION (  '', ( #206 ), #382 ) ;
#224 = AXIS2_PLACEMENT_3D ( 'NONE', #423, #108, #104 ) ;
#225 = FACE_OUTER_BOUND ( 'NONE', #485, .T. ) ;
#226 =( CONVERSION_BASED_UNIT ( 'INCH', #345 ) LENGTH_UNIT ( ) NAMED_UNIT ( #96 ) );
#227 = ORIENTED_EDGE ( 'NONE', *, *, #449, .T. ) ;
#228 = DIRECTION ( 'NONE',  ( 0.000000000000000000, 0.000000000000000000, 1.000000000000000000 ) ) ;
#229 = DIRECTION ( 'NONE',  ( 1.000000000000000000, -0.000000000000000000, 1.224646799147353207E-16 ) ) ;
#230 = ORIENTED_EDGE ( 'NONE', *, *, #340, .F. ) ;
#231 = SHAPE_DEFINITION_REPRESENTATION ( #482, #431 ) ;
#232 = VERTEX_POINT ( 'NONE', #183 ) ;
#233 = DIRECTION ( 'NONE',  ( 0.000000000000000000, -0.000000000000000000, 1.000000000000000000 ) ) ;
#234 =( CONVERSION_BASED_UNIT ( 'INCH', #74 ) LENGTH_UNIT ( ) NAMED_UNIT ( #271 ) );
#235 = PRESENTATION_LAYER_ASSIGNMENT (  '', '', ( #417 ) ) ;
#236 = AXIS2_PLACEMENT_3D ( 'NONE', #495, #149, #101 ) ;
#237 = PRODUCT_CONTEXT ( 'NONE', #7, 'mechanical' ) ;
#238 = ADVANCED_FACE ( 'NONE', ( #10 ), #381, .T. ) ;
#239 = CYLINDRICAL_SURFACE ( 'NONE', #308, 0.05000000000000000278 ) ;
#240 = AXIS2_PLACEMENT_3D ( 'NONE', #134, #254, #245 ) ;
#241 = MECHANICAL_DESIGN_GEOMETRIC_PRESENTATION_REPRESENTATION (  '', ( #107 ), #188 ) ;
#242 = CARTESIAN_POINT ( 'NONE',  ( 1.224646799147353384E-18, 0.04499999999999999833, -0.01000000000000000021 ) ) ;
#243 = PRESENTATION_LAYER_ASSIGNMENT (  '', '', ( #72 ) ) ;
#244 =( NAMED_UNIT ( * ) PLANE_ANGLE_UNIT ( ) SI_UNIT ( $, .RADIAN. ) );
#245 = DIRECTION ( 'NONE',  ( 0.000000000000000000, 0.000000000000000000, 1.000000000000000000 ) ) ;
#246 = EDGE_LOOP ( 'NONE', ( #446, #350, #227, #112 ) ) ;
#247 = FILL_AREA_STYLE_COLOUR ( '', #150 ) ;
#248 = ADVANCED_FACE ( 'NONE', ( #157 ), #263, .T. ) ;
#249 = ORIENTED_EDGE ( 'NONE', *, *, #449, .F. ) ;
#250 = CARTESIAN_POINT ( 'NONE',  ( 0.000000000000000000, 0.000000000000000000, -0.05000000000000000278 ) ) ;
#251 = LINE ( 'NONE', #187, #508 ) ;
#252 = CARTESIAN_POINT ( 'NONE',  ( 0.000000000000000000, 0.04499999999999999833, -0.05000000000000000278 ) ) ;
#253 = SURFACE_SIDE_STYLE ('',( #57 ) ) ;
#254 = DIRECTION ( 'NONE',  ( 0.000000000000000000, 1.000000000000000000, 0.000000000000000000 ) ) ;
#255 = CARTESIAN_POINT ( 'NONE',  ( 0.000000000000000000, 0.04499999999999999833, 0.000000000000000000 ) ) ;
#256 = SURFACE_STYLE_FILL_AREA ( #155 ) ;
#257 = DIMENSIONAL_EXPONENTS ( 1.000000000000000000, 0.000000000000000000, 0.000000000000000000, 0.000000000000000000, 0.000000000000000000, 0.000000000000000000, 0.000000000000000000 ) ;
#258 = COLOUR_RGB ( '',0.6470588235294117974, 0.5176470588235293491, 0.000000000000000000 ) ;
#259 = AXIS2_PLACEMENT_3D ( 'NONE', #89, #173, #367 ) ;
#260 = FACE_OUTER_BOUND ( 'NONE', #275, .T. ) ;
#261 = DIRECTION ( 'NONE',  ( 1.224646799147353207E-16, 0.000000000000000000, -1.000000000000000000 ) ) ;
#262 = UNCERTAINTY_MEASURE_WITH_UNIT (LENGTH_MEASURE( 1.000000000000000082E-05 ), #123, 'distance_accuracy_value', 'NONE');
#263 = TOROIDAL_SURFACE ( 'NONE', #420, 0.0009999999999999987198, 0.008000000000000000167 ) ;
#264 = COLOUR_RGB ( '',0.6470588235294117974, 0.5176470588235293491, 0.000000000000000000 ) ;
#265 = PRESENTATION_STYLE_ASSIGNMENT (( #190 ) ) ;
#266 = FILL_AREA_STYLE_COLOUR ( '', #84 ) ;
#267 = SURFACE_STYLE_USAGE ( .BOTH. , #339 ) ;
#268 = EDGE_CURVE ( 'NONE', #135, #270, #76, .T. ) ;
#269 = ORIENTED_EDGE ( 'NONE', *, *, #340, .T. ) ;
#270 = VERTEX_POINT ( 'NONE', #154 ) ;
#271 = DIMENSIONAL_EXPONENTS ( 1.000000000000000000, 0.000000000000000000, 0.000000000000000000, 0.000000000000000000, 0.000000000000000000, 0.000000000000000000, 0.000000000000000000 ) ;
#272 = VERTEX_POINT ( 'NONE', #416 ) ;
#273 = AXIS2_PLACEMENT_3D ( 'NONE', #140, #215, #95 ) ;
#274 = PRESENTATION_LAYER_ASSIGNMENT (  '', '', ( #206 ) ) ;
#275 = EDGE_LOOP ( 'NONE', ( #468, #269 ) ) ;
#276 = SURFACE_STYLE_USAGE ( .BOTH. , #161 ) ;
#277 = UNCERTAINTY_MEASURE_WITH_UNIT (LENGTH_MEASURE( 1.000000000000000082E-05 ), #303, 'distance_accuracy_value', 'NONE');
#278 = STYLED_ITEM ( 'NONE', ( #137 ), #289 ) ;
#279 = DIRECTION ( 'NONE',  ( 0.000000000000000000, 0.000000000000000000, 1.000000000000000000 ) ) ;
#280 = PRESENTATION_LAYER_ASSIGNMENT (  '', '', ( #505 ) ) ;
#281 = ADVANCED_FACE ( 'NONE', ( #501 ), #480, .T. ) ;
#282 = CARTESIAN_POINT ( 'NONE',  ( 0.000000000000000000, 0.04499999999999999833, 0.000000000000000000 ) ) ;
#283 = DIRECTION ( 'NONE',  ( 0.000000000000000000, 1.000000000000000000, 0.000000000000000000 ) ) ;
#284 = PRESENTATION_LAYER_ASSIGNMENT (  '', '', ( #163 ) ) ;
#285 = CIRCLE ( 'NONE', #398, 0.001000000000000000888 ) ;
#286 =( NAMED_UNIT ( * ) SI_UNIT ( $, .STERADIAN. ) SOLID_ANGLE_UNIT ( ) );
#287 =( NAMED_UNIT ( * ) PLANE_ANGLE_UNIT ( ) SI_UNIT ( $, .RADIAN. ) );
#288 = MECHANICAL_DESIGN_GEOMETRIC_PRESENTATION_REPRESENTATION (  '', ( #164 ), #359 ) ;
#289 = ADVANCED_FACE ( 'NONE', ( #333 ), #133, .T. ) ;
#290 = LENGTH_MEASURE_WITH_UNIT ( LENGTH_MEASURE( 0.02539999999999999897 ), #453 );
#291 = VERTEX_POINT ( 'NONE', #250 ) ;
#292 = ORIENTED_EDGE ( 'NONE', *, *, #358, .T. ) ;
#293 =( LENGTH_UNIT ( ) NAMED_UNIT ( * ) SI_UNIT ( $, .METRE. ) );
#294 =( CONVERSION_BASED_UNIT ( 'INCH', #331 ) LENGTH_UNIT ( ) NAMED_UNIT ( #490 ) );
#295 = DIRECTION ( 'NONE',  ( 1.224646799147352221E-16, 0.000000000000000000, -1.000000000000000000 ) ) ;
#296 =( NAMED_UNIT ( * ) SI_UNIT ( $, .STERADIAN. ) SOLID_ANGLE_UNIT ( ) );
#297 =( NAMED_UNIT ( * ) PLANE_ANGLE_UNIT ( ) SI_UNIT ( $, .RADIAN. ) );
#298 = LINE ( 'NONE', #455, #71 ) ;
#299 = AXIS2_PLACEMENT_3D ( 'NONE', #363, #444, #176 ) ;
#300 = PRESENTATION_STYLE_ASSIGNMENT (( #267 ) ) ;
#301 = UNCERTAINTY_MEASURE_WITH_UNIT (LENGTH_MEASURE( 1.000000000000000082E-05 ), #189, 'distance_accuracy_value', 'NONE');
#302 = DIRECTION ( 'NONE',  ( -0.000000000000000000, -1.000000000000000000, -0.000000000000000000 ) ) ;
#303 =( CONVERSION_BASED_UNIT ( 'INCH', #151 ) LENGTH_UNIT ( ) NAMED_UNIT ( #143 ) );
#304 = CARTESIAN_POINT ( 'NONE',  ( 1.224646799147353384E-18, 0.04599999999999999922, -0.01000000000000000021 ) ) ;
#305 = EDGE_CURVE ( 'NONE', #332, #90, #477, .T. ) ;
#306 =( NAMED_UNIT ( * ) PLANE_ANGLE_UNIT ( ) SI_UNIT ( $, .RADIAN. ) );
#307 = ORIENTED_EDGE ( 'NONE', *, *, #153, .T. ) ;
#308 = AXIS2_PLACEMENT_3D ( 'NONE', #282, #402, #415 ) ;
#309 = FILL_AREA_STYLE_COLOUR ( '', #144 ) ;
#310 = ORIENTED_EDGE ( 'NONE', *, *, #422, .F. ) ;
#311 = APPLICATION_PROTOCOL_DEFINITION ( 'draft international standard', 'automotive_design', 1998, #7 ) ;
#312 = FILL_AREA_STYLE ('',( #309 ) ) ;
#313 = DIRECTION ( 'NONE',  ( 0.000000000000000000, 0.000000000000000000, 1.000000000000000000 ) ) ;
#314 = CIRCLE ( 'NONE', #479, 0.008999999999999999320 ) ;
#315 = COLOUR_RGB ( '',0.6470588235294117974, 0.5176470588235293491, 0.000000000000000000 ) ;
#316 = ORIENTED_EDGE ( 'NONE', *, *, #484, .F. ) ;
#317 =( NAMED_UNIT ( * ) SI_UNIT ( $, .STERADIAN. ) SOLID_ANGLE_UNIT ( ) );
#318 = AXIS2_PLACEMENT_3D ( 'NONE', #435, #279, #437 ) ;
#319 = AXIS2_PLACEMENT_3D ( 'NONE', #496, #13, #228 ) ;
#320 = UNCERTAINTY_MEASURE_WITH_UNIT (LENGTH_MEASURE( 1.000000000000000082E-05 ), #52, 'distance_accuracy_value', 'NONE');
#321 = SURFACE_STYLE_USAGE ( .BOTH. , #361 ) ;
#322 = COLOUR_RGB ( '',0.6470588235294117974, 0.5176470588235293491, 0.000000000000000000 ) ;
#323 = DIRECTION ( 'NONE',  ( 0.000000000000000000, 0.000000000000000000, 1.000000000000000000 ) ) ;
#324 = DIRECTION ( 'NONE',  ( 0.000000000000000000, 1.000000000000000000, 0.000000000000000000 ) ) ;
#325 = EDGE_CURVE ( 'NONE', #232, #469, #50, .T. ) ;
#326 = CIRCLE ( 'NONE', #403, 0.05000000000000000278 ) ;
#327 = CIRCLE ( 'NONE', #441, 0.05000000000000000278 ) ;
#328 = SURFACE_STYLE_FILL_AREA ( #48 ) ;
#329 = DIRECTION ( 'NONE',  ( 0.000000000000000000, 1.000000000000000000, 0.000000000000000000 ) ) ;
#330 = ORIENTED_EDGE ( 'NONE', *, *, #153, .F. ) ;
#331 = LENGTH_MEASURE_WITH_UNIT ( LENGTH_MEASURE( 0.02539999999999999897 ), #411 );
#332 = VERTEX_POINT ( 'NONE', #478 ) ;
#333 = FACE_OUTER_BOUND ( 'NONE', #214, .T. ) ;
#334 = FILL_AREA_STYLE_COLOUR ( '', #159 ) ;
#335 = DIRECTION ( 'NONE',  ( 0.000000000000000000, 1.000000000000000000, 0.000000000000000000 ) ) ;
#336 =( NAMED_UNIT ( * ) SI_UNIT ( $, .STERADIAN. ) SOLID_ANGLE_UNIT ( ) );
#337 = COLOUR_RGB ( '',0.6470588235294117974, 0.5176470588235293491, 0.000000000000000000 ) ;
#338 = FILL_AREA_STYLE ('',( #99 ) ) ;
#339 = SURFACE_SIDE_STYLE ('',( #390 ) ) ;
#340 = EDGE_CURVE ( 'NONE', #232, #113, #327, .T. ) ;
#341 = LENGTH_MEASURE_WITH_UNIT ( LENGTH_MEASURE( 0.02539999999999999897 ), #396 );
#342 = CLOSED_SHELL ( 'NONE', ( #401, #175, #289, #170, #238, #512, #121, #281, #2, #248, #432 ) ) ;
#343 = PRESENTATION_STYLE_ASSIGNMENT (( #378 ) ) ;
#344 = AXIS2_PLACEMENT_3D ( 'NONE', #462, #97, #465 ) ;
#345 = LENGTH_MEASURE_WITH_UNIT ( LENGTH_MEASURE( 0.02539999999999999897 ), #386 );
#346 = DIRECTION ( 'NONE',  ( 0.000000000000000000, 1.000000000000000000, 0.000000000000000000 ) ) ;
#347 = CARTESIAN_POINT ( 'NONE',  ( 0.000000000000000000, 0.1620000000000000051, 0.000000000000000000 ) ) ;
#348 = SURFACE_STYLE_FILL_AREA ( #389 ) ;
#349 = EDGE_CURVE ( 'NONE', #469, #291, #221, .T. ) ;
#350 = ORIENTED_EDGE ( 'NONE', *, *, #305, .F. ) ;
#351 = VERTEX_POINT ( 'NONE', #242 ) ;
#352 = DIMENSIONAL_EXPONENTS ( 1.000000000000000000, 0.000000000000000000, 0.000000000000000000, 0.000000000000000000, 0.000000000000000000, 0.000000000000000000, 0.000000000000000000 ) ;
#353 = VERTEX_POINT ( 'NONE', #405 ) ;
#354 = PRESENTATION_STYLE_ASSIGNMENT (( #73 ) ) ;
#355 =( NAMED_UNIT ( * ) PLANE_ANGLE_UNIT ( ) SI_UNIT ( $, .RADIAN. ) );
#356 = TOROIDAL_SURFACE ( 'NONE', #240, 0.0009999999999999987198, 0.008000000000000000167 ) ;
#357 = TOROIDAL_SURFACE ( 'NONE', #471, 0.01000000000000000021, 0.001000000000000000021 ) ;
#358 = EDGE_CURVE ( 'NONE', #90, #353, #407, .T. ) ;
#359 =( GEOMETRIC_REPRESENTATION_CONTEXT ( 3 ) GLOBAL_UNCERTAINTY_ASSIGNED_CONTEXT ( ( #473 ) ) GLOBAL_UNIT_ASSIGNED_CONTEXT ( ( #184, #426, #141 ) ) REPRESENTATION_CONTEXT ( 'NONE', 'WORKASPACE' ) );
#360 = EDGE_CURVE ( 'NONE', #90, #135, #204, .T. ) ;
#361 = SURFACE_SIDE_STYLE ('',( #81 ) ) ;
#362 = AXIS2_PLACEMENT_3D ( 'NONE', #18, #335, #146 ) ;
#363 = CARTESIAN_POINT ( 'NONE',  ( 0.000000000000000000, 0.3654558441227157006, 0.000000000000000000 ) ) ;
#364 = STYLED_ITEM ( 'NONE', ( #300 ), #281 ) ;
#365 = SURFACE_STYLE_FILL_AREA ( #51 ) ;
#366 = ORIENTED_EDGE ( 'NONE', *, *, #474, .F. ) ;
#367 = DIRECTION ( 'NONE',  ( 0.000000000000000000, 0.000000000000000000, -1.000000000000000000 ) ) ;
#368 = ORIENTED_EDGE ( 'NONE', *, *, #373, .F. ) ;
#369 = DIRECTION ( 'NONE',  ( 0.000000000000000000, 1.000000000000000000, 0.000000000000000000 ) ) ;
#370 = SURFACE_SIDE_STYLE ('',( #365 ) ) ;
#371 =( NAMED_UNIT ( * ) SI_UNIT ( $, .STERADIAN. ) SOLID_ANGLE_UNIT ( ) );
#372 = MECHANICAL_DESIGN_GEOMETRIC_PRESENTATION_REPRESENTATION (  '', ( #417 ), #11 ) ;
#373 = EDGE_CURVE ( 'NONE', #353, #351, #285, .T. ) ;
#374 = SURFACE_STYLE_USAGE ( .BOTH. , #253 ) ;
#375 = PRESENTATION_STYLE_ASSIGNMENT (( #131 ) ) ;
#376 = PLANE ( 'NONE',  #362 ) ;
#377 = FACE_BOUND ( 'NONE', #34, .T. ) ;
#378 = SURFACE_STYLE_USAGE ( .BOTH. , #62 ) ;
#379 =( GEOMETRIC_REPRESENTATION_CONTEXT ( 3 ) GLOBAL_UNCERTAINTY_ASSIGNED_CONTEXT ( ( #196 ) ) GLOBAL_UNIT_ASSIGNED_CONTEXT ( ( #294, #287, #46 ) ) REPRESENTATION_CONTEXT ( 'NONE', 'WORKASPACE' ) );
#380 = LENGTH_MEASURE_WITH_UNIT ( LENGTH_MEASURE( 0.02539999999999999897 ), #138 );
#381 = CYLINDRICAL_SURFACE ( 'NONE', #83, 0.05000000000000000278 ) ;
#382 =( GEOMETRIC_REPRESENTATION_CONTEXT ( 3 ) GLOBAL_UNCERTAINTY_ASSIGNED_CONTEXT ( ( #301 ) ) GLOBAL_UNIT_ASSIGNED_CONTEXT ( ( #189, #12, #371 ) ) REPRESENTATION_CONTEXT ( 'NONE', 'WORKASPACE' ) );
#383 = LENGTH_MEASURE_WITH_UNIT ( LENGTH_MEASURE( 0.02539999999999999897 ), #293 );
#384 = SURFACE_STYLE_FILL_AREA ( #494 ) ;
#385 = UNCERTAINTY_MEASURE_WITH_UNIT (LENGTH_MEASURE( 1.000000000000000082E-05 ), #180, 'distance_accuracy_value', 'NONE');
#386 =( LENGTH_UNIT ( ) NAMED_UNIT ( * ) SI_UNIT ( $, .METRE. ) );
#387 = EDGE_CURVE ( 'NONE', #353, #272, #314, .T. ) ;
#388 = SURFACE_SIDE_STYLE ('',( #256 ) ) ;
#389 = FILL_AREA_STYLE ('',( #266 ) ) ;
#390 = SURFACE_STYLE_FILL_AREA ( #193 ) ;
#391 = ORIENTED_EDGE ( 'NONE', *, *, #349, .T. ) ;
#392 = ORIENTED_EDGE ( 'NONE', *, *, #268, .T. ) ;
#393 = EDGE_LOOP ( 'NONE', ( #428, #412, #292, #212 ) ) ;
#394 = CARTESIAN_POINT ( 'NONE',  ( 0.000000000000000000, 0.04599999999999999922, 0.01000000000000000021 ) ) ;
#395 = AXIS2_PLACEMENT_3D ( 'NONE', #472, #324, #127 ) ;
#396 =( LENGTH_UNIT ( ) NAMED_UNIT ( * ) SI_UNIT ( $, .METRE. ) );
#397 = PRODUCT_DEFINITION_CONTEXT ( 'detailed design', #447, 'design' ) ;
#398 = AXIS2_PLACEMENT_3D ( 'NONE', #304, #419, #295 ) ;
#399 = PRODUCT ( '1508-0-00-15-00-00-03-0', '1508-0-00-15-00-00-03-0', '', ( #237 ) ) ;
#400 =( GEOMETRIC_REPRESENTATION_CONTEXT ( 3 ) GLOBAL_UNCERTAINTY_ASSIGNED_CONTEXT ( ( #75 ) ) GLOBAL_UNIT_ASSIGNED_CONTEXT ( ( #93, #26, #336 ) ) REPRESENTATION_CONTEXT ( 'NONE', 'WORKASPACE' ) );
#401 = ADVANCED_FACE ( 'NONE', ( #105 ), #357, .F. ) ;
#402 = DIRECTION ( 'NONE',  ( -0.000000000000000000, -1.000000000000000000, -0.000000000000000000 ) ) ;
#403 = AXIS2_PLACEMENT_3D ( 'NONE', #448, #329, #130 ) ;
#404 = LENGTH_MEASURE_WITH_UNIT ( LENGTH_MEASURE( 0.02539999999999999897 ), #475 );
#405 = CARTESIAN_POINT ( 'NONE',  ( 0.000000000000000000, 0.04599999999999999922, -0.008999999999999999320 ) ) ;
#406 = CIRCLE ( 'NONE', #224, 0.05000000000000000278 ) ;
#407 = LINE ( 'NONE', #45, #510 ) ;
#408 = FILL_AREA_STYLE_COLOUR ( '', #337 ) ;
#409 = EDGE_LOOP ( 'NONE', ( #132, #67, #509, #31 ) ) ;
#410 = DIRECTION ( 'NONE',  ( -0.000000000000000000, -1.000000000000000000, -0.000000000000000000 ) ) ;
#411 =( LENGTH_UNIT ( ) NAMED_UNIT ( * ) SI_UNIT ( $, .METRE. ) );
#412 = ORIENTED_EDGE ( 'NONE', *, *, #305, .T. ) ;
#413 = PRESENTATION_STYLE_ASSIGNMENT (( #178 ) ) ;
#414 = PRESENTATION_STYLE_ASSIGNMENT (( #374 ) ) ;
#415 = DIRECTION ( 'NONE',  ( 0.000000000000000000, 0.000000000000000000, -1.000000000000000000 ) ) ;
#416 = CARTESIAN_POINT ( 'NONE',  ( 1.102182119232617757E-18, 0.04599999999999999922, 0.008999999999999999320 ) ) ;
#417 = STYLED_ITEM ( 'NONE', ( #171 ), #170 ) ;
#418 = FILL_AREA_STYLE_COLOUR ( '', #87 ) ;
#419 = DIRECTION ( 'NONE',  ( 1.000000000000000000, -0.000000000000000000, 1.224646799147353207E-16 ) ) ;
#420 = AXIS2_PLACEMENT_3D ( 'NONE', #347, #110, #500 ) ;
#421 = AXIS2_PLACEMENT_3D ( 'NONE', #487, #283, #82 ) ;
#422 = EDGE_CURVE ( 'NONE', #427, #351, #20, .T. ) ;
#423 = CARTESIAN_POINT ( 'NONE',  ( 0.000000000000000000, 0.000000000000000000, 0.000000000000000000 ) ) ;
#424 = CARTESIAN_POINT ( 'NONE',  ( 0.000000000000000000, 0.04499999999999999833, 0.000000000000000000 ) ) ;
#425 = EDGE_LOOP ( 'NONE', ( #316, #181 ) ) ;
#426 =( NAMED_UNIT ( * ) PLANE_ANGLE_UNIT ( ) SI_UNIT ( $, .RADIAN. ) );
#427 = VERTEX_POINT ( 'NONE', #109 ) ;
#428 = ORIENTED_EDGE ( 'NONE', *, *, #205, .F. ) ;
#429 = ORIENTED_EDGE ( 'NONE', *, *, #88, .T. ) ;
#430 =( GEOMETRIC_REPRESENTATION_CONTEXT ( 3 ) GLOBAL_UNCERTAINTY_ASSIGNED_CONTEXT ( ( #59 ) ) GLOBAL_UNIT_ASSIGNED_CONTEXT ( ( #16, #458, #296 ) ) REPRESENTATION_CONTEXT ( 'NONE', 'WORKASPACE' ) );
#431 = ADVANCED_BREP_SHAPE_REPRESENTATION ( '1508-0-00-15-00-00-03-0', ( #120, #318 ), #400 ) ;
#432 = ADVANCED_FACE ( 'NONE', ( #225 ), #433, .F. ) ;
#433 = TOROIDAL_SURFACE ( 'NONE', #25, 0.01000000000000000021, 0.001000000000000000021 ) ;
#434 = ORIENTED_EDGE ( 'NONE', *, *, #358, .F. ) ;
#435 = CARTESIAN_POINT ( 'NONE',  ( 0.000000000000000000, 0.000000000000000000, 0.000000000000000000 ) ) ;
#436 = PRESENTATION_LAYER_ASSIGNMENT (  '', '', ( #278 ) ) ;
#437 = DIRECTION ( 'NONE',  ( 1.000000000000000000, 0.000000000000000000, 0.000000000000000000 ) ) ;
#438 = AXIS2_PLACEMENT_3D ( 'NONE', #114, #70, #233 ) ;
#439 = DIRECTION ( 'NONE',  ( 0.000000000000000000, 0.000000000000000000, 1.000000000000000000 ) ) ;
#440 = STYLED_ITEM ( 'NONE', ( #30 ), #248 ) ;
#441 = AXIS2_PLACEMENT_3D ( 'NONE', #442, #369, #439 ) ;
#442 = CARTESIAN_POINT ( 'NONE',  ( 0.000000000000000000, 0.04499999999999999833, 0.000000000000000000 ) ) ;
#443 = MECHANICAL_DESIGN_GEOMETRIC_PRESENTATION_REPRESENTATION (  '', ( #142 ), #430 ) ;
#444 = DIRECTION ( 'NONE',  ( -0.000000000000000000, -1.000000000000000000, -0.000000000000000000 ) ) ;
#445 = SURFACE_SIDE_STYLE ('',( #211 ) ) ;
#446 = ORIENTED_EDGE ( 'NONE', *, *, #360, .F. ) ;
#447 = APPLICATION_CONTEXT ( 'automotive_design' ) ;
#448 = CARTESIAN_POINT ( 'NONE',  ( 0.000000000000000000, 0.04499999999999999833, 0.000000000000000000 ) ) ;
#449 = EDGE_CURVE ( 'NONE', #332, #270, #192, .T. ) ;
#450 =( NAMED_UNIT ( * ) PLANE_ANGLE_UNIT ( ) SI_UNIT ( $, .RADIAN. ) );
#451 = CARTESIAN_POINT ( 'NONE',  ( 6.123233995736766344E-18, 0.04499999999999999833, 0.05000000000000000278 ) ) ;
#452 = DIMENSIONAL_EXPONENTS ( 1.000000000000000000, 0.000000000000000000, 0.000000000000000000, 0.000000000000000000, 0.000000000000000000, 0.000000000000000000, 0.000000000000000000 ) ;
#453 =( LENGTH_UNIT ( ) NAMED_UNIT ( * ) SI_UNIT ( $, .METRE. ) );
#454 = DIRECTION ( 'NONE',  ( 0.000000000000000000, 0.000000000000000000, -1.000000000000000000 ) ) ;
#455 = CARTESIAN_POINT ( 'NONE',  ( 0.000000000000000000, 0.04499999999999999833, -0.05000000000000000278 ) ) ;
#456 = CARTESIAN_POINT ( 'NONE',  ( 6.123233995736766344E-18, 0.000000000000000000, 0.05000000000000000278 ) ) ;
#457 = LENGTH_MEASURE_WITH_UNIT ( LENGTH_MEASURE( 0.02539999999999999897 ), #29 );
#458 =( NAMED_UNIT ( * ) PLANE_ANGLE_UNIT ( ) SI_UNIT ( $, .RADIAN. ) );
#459 = SURFACE_STYLE_USAGE ( .BOTH. , #28 ) ;
#460 = CARTESIAN_POINT ( 'NONE',  ( 0.000000000000000000, 0.1620000000000000051, -0.008999999999999999320 ) ) ;
#461 =( GEOMETRIC_REPRESENTATION_CONTEXT ( 3 ) GLOBAL_UNCERTAINTY_ASSIGNED_CONTEXT ( ( #499 ) ) GLOBAL_UNIT_ASSIGNED_CONTEXT ( ( #234, #355, #317 ) ) REPRESENTATION_CONTEXT ( 'NONE', 'WORKASPACE' ) );
#462 = CARTESIAN_POINT ( 'NONE',  ( 0.000000000000000000, 0.1620000000000000051, 0.000000000000000000 ) ) ;
#463 = AXIS2_PLACEMENT_3D ( 'NONE', #6, #91, #323 ) ;
#464 = DIRECTION ( 'NONE',  ( 0.000000000000000000, 0.000000000000000000, 1.000000000000000000 ) ) ;
#465 = DIRECTION ( 'NONE',  ( 0.000000000000000000, 0.000000000000000000, 1.000000000000000000 ) ) ;
#466 = SURFACE_STYLE_USAGE ( .BOTH. , #156 ) ;
#467 = FILL_AREA_STYLE_COLOUR ( '', #322 ) ;
#468 = ORIENTED_EDGE ( 'NONE', *, *, #194, .T. ) ;
#469 = VERTEX_POINT ( 'NONE', #456 ) ;
#470 = SURFACE_SIDE_STYLE ('',( #117 ) ) ;
#471 = AXIS2_PLACEMENT_3D ( 'NONE', #148, #497, #14 ) ;
#472 = CARTESIAN_POINT ( 'NONE',  ( 0.000000000000000000, 0.04599999999999999922, 0.000000000000000000 ) ) ;
#473 = UNCERTAINTY_MEASURE_WITH_UNIT (LENGTH_MEASURE( 1.000000000000000082E-05 ), #184, 'distance_accuracy_value', 'NONE');
#474 = EDGE_CURVE ( 'NONE', #90, #332, #44, .T. ) ;
#475 =( LENGTH_UNIT ( ) NAMED_UNIT ( * ) SI_UNIT ( $, .METRE. ) );
#476 = CIRCLE ( 'NONE', #395, 0.008999999999999999320 ) ;
#477 = CIRCLE ( 'NONE', #463, 0.008999999999999999320 ) ;
#478 = CARTESIAN_POINT ( 'NONE',  ( 1.102182119232617757E-18, 0.1620000000000000051, 0.008999999999999999320 ) ) ;
#479 = AXIS2_PLACEMENT_3D ( 'NONE', #27, #58, #222 ) ;
#480 = CYLINDRICAL_SURFACE ( 'NONE', #299, 0.008999999999999999320 ) ;
#481 = DIRECTION ( 'NONE',  ( -0.000000000000000000, -1.000000000000000000, -0.000000000000000000 ) ) ;
#482 = PRODUCT_DEFINITION_SHAPE ( 'NONE', 'NONE',  #182 ) ;
#483 = ORIENTED_EDGE ( 'NONE', *, *, #474, .T. ) ;
#484 = EDGE_CURVE ( 'NONE', #291, #469, #406, .T. ) ;
#485 = EDGE_LOOP ( 'NONE', ( #368, #330, #69, #8 ) ) ;
#486 = DIRECTION ( 'NONE',  ( 0.000000000000000000, 1.000000000000000000, 0.000000000000000000 ) ) ;
#487 = CARTESIAN_POINT ( 'NONE',  ( 0.000000000000000000, 0.000000000000000000, 0.000000000000000000 ) ) ;
#488 = FILL_AREA_STYLE_COLOUR ( '', #315 ) ;
#489 = DIRECTION ( 'NONE',  ( -0.000000000000000000, -1.000000000000000000, -0.000000000000000000 ) ) ;
#490 = DIMENSIONAL_EXPONENTS ( 1.000000000000000000, 0.000000000000000000, 0.000000000000000000, 0.000000000000000000, 0.000000000000000000, 0.000000000000000000, 0.000000000000000000 ) ;
#491 = PRESENTATION_LAYER_ASSIGNMENT (  '', '', ( #60 ) ) ;
#492 = AXIS2_PLACEMENT_3D ( 'NONE', #32, #486, #136 ) ;
#493 = PLANE ( 'NONE',  #492 ) ;
#494 = FILL_AREA_STYLE ('',( #22 ) ) ;
#495 = CARTESIAN_POINT ( 'NONE',  ( 0.000000000000000000, 0.1699999999999999845, 0.000000000000000000 ) ) ;
#496 = CARTESIAN_POINT ( 'NONE',  ( 0.000000000000000000, 0.1620000000000000051, 0.0009999999999999987198 ) ) ;
#497 = DIRECTION ( 'NONE',  ( 0.000000000000000000, 1.000000000000000000, 0.000000000000000000 ) ) ;
#498 = VECTOR ( 'NONE', #410, 39.37007874015748143 ) ;
#499 = UNCERTAINTY_MEASURE_WITH_UNIT (LENGTH_MEASURE( 1.000000000000000082E-05 ), #234, 'distance_accuracy_value', 'NONE');
#500 = DIRECTION ( 'NONE',  ( 0.000000000000000000, 0.000000000000000000, 1.000000000000000000 ) ) ;
#501 = FACE_OUTER_BOUND ( 'NONE', #393, .T. ) ;
#502 = EDGE_LOOP ( 'NONE', ( #230, #160, #391, #5 ) ) ;
#503 = DIMENSIONAL_EXPONENTS ( 1.000000000000000000, 0.000000000000000000, 0.000000000000000000, 0.000000000000000000, 0.000000000000000000, 0.000000000000000000, 0.000000000000000000 ) ;
#504 = ORIENTED_EDGE ( 'NONE', *, *, #387, .F. ) ;
#505 = STYLED_ITEM ( 'NONE', ( #413 ), #175 ) ;
#506 = ORIENTED_EDGE ( 'NONE', *, *, #77, .F. ) ;
#507 = PLANE ( 'NONE',  #438 ) ;
#508 = VECTOR ( 'NONE', #481, 39.37007874015748143 ) ;
#509 = ORIENTED_EDGE ( 'NONE', *, *, #64, .T. ) ;
#510 = VECTOR ( 'NONE', #209, 39.37007874015748143 ) ;
#511 = UNCERTAINTY_MEASURE_WITH_UNIT (LENGTH_MEASURE( 1.000000000000000082E-05 ), #124, 'distance_accuracy_value', 'NONE');
#512 = ADVANCED_FACE ( 'NONE', ( #377, #260 ), #493, .T. ) ;
#513 = PRESENTATION_LAYER_ASSIGNMENT (  '', '', ( #164 ) ) ;
ENDSEC;
END-ISO-10303-21;
